HIERARCHY
ROOT Pelvis
{
	OFFSET 0.000000 0.941512 0.000000
	CHANNELS 6 Xposition Yposition Zposition Zrotation Yrotation Xrotation 
	JOINT Pelvis_L_Hip
	{
		OFFSET 0.000000 0.000000 0.000000
		CHANNELS 3 Zrotation Yrotation Xrotation
		JOINT L_Hip
		{
			OFFSET 0.062321 -0.080322 -0.016990
			CHANNELS 3 Zrotation Yrotation Xrotation
			JOINT L_Knee
			{
				OFFSET 0.093051 -0.381305 -0.029784
				CHANNELS 3 Zrotation Yrotation Xrotation
				JOINT L_Ankle
				{
					OFFSET -0.010371 -0.431000 -0.033614
					CHANNELS 3 Zrotation Yrotation Xrotation
					End Site #name: L_Foot
					{
						OFFSET 0.069299 -0.038670 0.119418
					}
				}
			}
		}
	}
	JOINT Pelvis_R_Hip
	{
		OFFSET 0.000000 0.000000 0.000000
		CHANNELS 3 Zrotation Yrotation Xrotation
		JOINT R_Hip
		{
			OFFSET -0.055334 -0.094904 -0.002373
			CHANNELS 3 Zrotation Yrotation Xrotation
			JOINT R_Knee
			{
				OFFSET -0.064207 -0.384370 -0.019592
				CHANNELS 3 Zrotation Yrotation Xrotation
				JOINT R_Ankle
				{
					OFFSET 0.025418 -0.419734 -0.065953
					CHANNELS 3 Zrotation Yrotation Xrotation
					End Site #name: R_Foot
					{
						OFFSET -0.057233 -0.039888 0.132134
					}
				}
			}
		}
	}
	JOINT Pelvis_Spine1
	{
		OFFSET 0.000000 0.000000 0.000000
		CHANNELS 3 Zrotation Yrotation Xrotation
		JOINT Spine1
		{
			OFFSET -0.005562 0.124093 -0.043360
			CHANNELS 3 Zrotation Yrotation Xrotation
			JOINT Spine2
			{
				OFFSET 0.012244 0.139499 0.029894
				CHANNELS 3 Zrotation Yrotation Xrotation
				JOINT Spine3
				{
					OFFSET -0.002556 0.056561 0.009225
					CHANNELS 3 Zrotation Yrotation Xrotation
					JOINT Spine3_Neck
					{
						OFFSET 0.000000 0.000000 0.000000
						CHANNELS 3 Zrotation Yrotation Xrotation
						JOINT Neck
						{
							OFFSET -0.005205 0.217920 -0.024551
							CHANNELS 3 Zrotation Yrotation Xrotation
							End Site #name: Head
							{
								OFFSET 0.002365 0.091850 0.046637
							}
						}
					}
					JOINT Spine3_L_Collar
					{
						OFFSET 0.000000 0.000000 0.000000
						CHANNELS 3 Zrotation Yrotation Xrotation
						JOINT L_Collar
						{
							OFFSET 0.072225 0.116603 -0.009480
							CHANNELS 3 Zrotation Yrotation Xrotation
							JOINT L_Shoulder
							{
								OFFSET 0.115937 -0.058643 -0.021018
								CHANNELS 3 Zrotation Yrotation Xrotation
								JOINT L_Elbow
								{
									OFFSET 0.021994 -0.254722 -0.024492
									CHANNELS 3 Zrotation Yrotation Xrotation
									End Site #name: L_Wrist
									{
										OFFSET 0.048810 -0.240214 0.103329
									}
								}
							}
						}
					}
					JOINT Spine3_R_Collar
					{
						OFFSET 0.000000 0.000000 0.000000
						CHANNELS 3 Zrotation Yrotation Xrotation
						JOINT R_Collar
						{
							OFFSET -0.073372 0.120704 -0.024611
							CHANNELS 3 Zrotation Yrotation Xrotation
							JOINT R_Shoulder
							{
								OFFSET -0.108089 -0.054969 -0.020504
								CHANNELS 3 Zrotation Yrotation Xrotation
								JOINT R_Elbow
								{
									OFFSET -0.033684 -0.260739 0.009889
									CHANNELS 3 Zrotation Yrotation Xrotation
									End Site #name: R_Wrist
									{
										OFFSET -0.067980 -0.232763 0.118463
									}
								}
							}
						}
					}
				}
			}
		}
	}
}
MOTION
Frames: 13
Frame Time: 0.041667
0.000000 0.941512 0.000000 0.005026 0.000690 0.001722 0.000000 0.000000 0.000000 -0.009671 -0.000196 -0.003898 0.007460 -0.000671 0.003684 0.000000 0.000000 0.000000 0.000000 0.000000 0.000000 0.000000 0.000000 0.000000 -0.007283 0.000973 -0.002828 0.002689 -0.002587 0.008010 0.000000 0.000000 0.000000 -0.007222 0.001775 -0.002587 0.000000 0.000000 0.000000 0.005543 -0.002178 0.004243 0.000000 0.000000 0.000000 -0.005889 0.003228 -0.009268 0.000000 0.000000 0.000000 0.000000 0.000000 0.000000 0.000000 0.000000 0.000000 -0.007821 -0.005520 -0.010602 0.000000 0.000000 0.000000 0.000000 0.000000 0.000000 0.000000 0.000000 0.000000 -0.007531 -0.001239 -0.008882 
0.000821 0.942211 -0.002442 0.104032 0.085896 0.186433 0.000000 0.000000 0.000000 -0.082102 -0.202021 -0.852350 -0.139328 -0.009292 0.882853 0.258590 -0.030490 -0.462839 0.000000 0.000000 0.000000 -0.133235 0.097325 -0.545405 -0.009635 0.016928 0.253851 0.011887 -0.208530 0.173648 0.000000 0.000000 0.000000 0.128058 -0.109762 0.923096 -0.378849 0.023607 -0.788747 0.152097 0.197426 0.341919 0.000000 0.000000 0.000000 -0.368684 0.220932 -1.505327 0.000000 0.000000 0.000000 0.041777 -0.047411 -0.016377 0.463711 -0.131343 -1.056122 -0.335584 -0.099316 0.218389 0.000000 0.000000 0.000000 -0.299254 0.589736 -0.245351 0.240089 0.072396 -0.484243 0.152948 0.100860 -0.078158 
0.002692 0.944006 -0.007770 0.328284 0.271725 0.697655 0.000000 0.000000 0.000000 -0.406276 -0.651854 -2.767250 -0.386716 -0.045709 3.643449 1.222664 0.668253 -1.751306 0.000000 0.000000 0.000000 -0.477962 0.300796 -1.696699 0.013389 0.035116 0.617662 -0.037595 -0.676512 0.391436 0.000000 0.000000 0.000000 0.026006 -0.217412 2.382363 -0.577928 0.033176 -1.212591 0.153940 0.572931 0.023606 0.000000 0.000000 0.000000 -0.877952 0.495092 -2.725844 0.000000 0.000000 0.000000 0.383257 -0.976464 -0.428489 1.429728 -0.290080 -2.095923 -1.036189 -0.565455 -0.552562 0.000000 0.000000 0.000000 -1.028684 2.078248 -0.889783 0.478542 0.088797 -0.535551 0.520479 0.645469 -1.269634 
0.005703 0.945540 -0.014256 0.230903 0.490537 1.217688 0.000000 0.000000 0.000000 -0.705061 -1.069127 -4.512233 -0.603486 -0.099366 7.643224 2.775455 2.664901 -3.398388 0.000000 0.000000 0.000000 -0.402797 0.518133 -3.036710 -0.333297 0.130122 1.223705 -0.145278 -1.171428 0.497237 0.000000 0.000000 0.000000 -0.043803 -0.357998 4.125242 -0.590539 0.027689 -1.361995 0.206198 0.969485 -0.392192 0.000000 0.000000 0.000000 -1.256219 0.691685 -3.558415 0.000000 0.000000 0.000000 1.097813 -2.671830 -1.186279 2.533245 -0.459687 -3.477910 -1.975731 -1.339618 -2.141467 0.000000 0.000000 0.000000 -2.485590 3.814447 -1.591621 0.698176 0.047618 -0.165307 0.900884 1.720559 -4.097112 
0.010298 0.944995 -0.020333 -0.231203 0.718451 1.671323 0.000000 0.000000 0.000000 -1.018014 -1.131842 -4.821203 -0.592121 -0.157930 10.428299 4.187616 5.060323 -4.619601 0.000000 0.000000 0.000000 0.166392 0.828789 -4.961016 -1.225883 0.437985 3.425730 -0.529258 -1.843023 0.072749 0.000000 0.000000 0.000000 -0.204679 -0.454255 5.621405 -0.280801 -0.007013 -1.106116 0.292589 0.988183 -0.850561 0.000000 0.000000 0.000000 -1.033460 0.586605 -3.450160 0.000000 0.000000 0.000000 2.090273 -4.935558 -2.241327 3.200007 -0.583511 -4.914787 -2.954641 -2.390026 -4.619955 0.000000 0.000000 0.000000 -4.228381 4.837963 -1.917449 0.727194 -0.037028 0.470277 0.978742 3.089159 -8.223902 
0.016781 0.941413 -0.026260 -0.460056 1.089119 1.946520 0.000000 0.000000 0.000000 -1.623485 -0.821346 -3.712903 -0.493458 -0.177949 10.431683 5.052404 6.232777 -5.542105 0.000000 0.000000 0.000000 0.573778 1.402820 -8.319956 -2.324566 1.096609 8.975203 -1.364205 -3.391618 -0.827158 0.000000 0.000000 0.000000 -1.010010 -0.395642 7.444675 0.294308 -0.088402 -0.939992 0.336331 0.320256 -1.172419 0.000000 0.000000 0.000000 -0.085424 0.126323 -2.993173 0.000000 0.000000 0.000000 3.163612 -7.818619 -3.694641 3.231765 -0.680920 -6.548412 -4.089862 -3.865180 -8.139599 0.000000 0.000000 0.000000 -5.409619 4.560145 -1.589059 0.762822 -0.097891 0.932237 0.315529 4.184419 -12.786514 
0.024504 0.936033 -0.033034 0.144419 1.703860 1.878053 0.000000 0.000000 0.000000 -2.660281 -0.399063 -2.322233 -0.752472 -0.104757 8.682856 5.423859 5.775637 -6.454796 0.000000 0.000000 0.000000 -0.007946 2.205114 -13.270018 -2.394117 1.787996 17.311264 -2.453333 -6.220997 -1.443623 0.000000 0.000000 0.000000 -2.647597 -0.168170 10.681043 0.798529 -0.182953 -1.347893 0.291697 -0.928359 -1.132581 0.000000 0.000000 0.000000 1.144207 -0.454773 -3.206198 0.000000 0.000000 0.000000 4.027063 -11.555058 -5.746216 3.077639 -0.825255 -9.042186 -5.356779 -5.876725 -12.835300 0.000000 0.000000 0.000000 -5.552353 3.238052 -0.784030 1.372302 -0.138556 1.356566 -1.464021 4.481779 -17.367845 
0.032206 0.932013 -0.039961 1.260238 2.416203 1.574824 0.000000 0.000000 0.000000 -3.828489 -0.084727 -1.444992 -1.325213 0.004816 6.888749 5.419901 4.670301 -6.993947 0.000000 0.000000 0.000000 -1.410094 2.969308 -19.080326 -0.470594 1.617096 24.806803 -3.660346 -10.279113 -1.320580 0.000000 0.000000 0.000000 -4.290489 0.039476 15.542059 1.052816 -0.261577 -2.419639 0.273792 -2.391849 -0.673276 0.000000 0.000000 0.000000 1.937797 -0.787424 -4.424747 0.000000 0.000000 0.000000 4.505249 -16.062821 -8.374282 3.006709 -1.042014 -12.707528 -6.067117 -8.084914 -18.699178 0.000000 0.000000 0.000000 -5.088965 1.702894 0.045008 2.853429 -0.264261 2.444581 -3.930978 4.122977 -21.977152 
0.039147 0.931513 -0.043605 1.971709 2.989962 1.599931 0.000000 0.000000 0.000000 -4.708003 0.121441 -0.940487 -1.516012 0.050987 5.148137 5.140807 3.835510 -6.880359 0.000000 0.000000 0.000000 -2.500727 3.611437 -24.821979 2.919378 0.320303 27.365659 -5.192538 -16.163164 -0.002384 0.000000 0.000000 0.000000 -4.961505 -0.034299 20.501760 1.434651 -0.365067 -3.838750 0.512849 -3.977534 0.002808 0.000000 0.000000 0.000000 1.981448 -0.762198 -6.037386 0.000000 0.000000 0.000000 5.041098 -20.948176 -11.361742 2.640123 -1.282415 -16.639692 -5.644985 -9.940880 -25.439000 0.000000 0.000000 0.000000 -4.909705 0.322184 0.832418 4.543579 -0.529119 4.214640 -5.932276 3.917491 -26.503764 
0.045086 0.933386 -0.040228 2.104872 3.338569 2.085712 0.000000 0.000000 0.000000 -5.459707 0.387693 -0.241758 -0.783581 0.002755 3.073503 4.266245 2.736722 -5.865668 0.000000 0.000000 0.000000 -2.611154 4.163811 -29.141408 6.090369 -1.013748 24.032299 -6.903481 -23.056782 3.489711 0.000000 0.000000 0.000000 -4.735683 -0.466616 25.241899 2.179152 -0.652194 -10.424086 0.912927 -5.617625 6.407734 0.000000 0.000000 0.000000 1.710779 -0.513719 -11.566319 0.000000 0.000000 0.000000 6.454756 -24.060225 -13.516266 2.342944 -1.630310 -22.985778 -4.797649 -11.279646 -31.939248 0.000000 0.000000 0.000000 -3.311170 -3.806373 2.798234 2.534567 -0.288055 2.508808 -5.157071 6.014530 -31.217045 
0.052349 0.933549 -0.025077 1.742375 3.419783 3.677765 0.000000 0.000000 0.000000 -5.957848 0.552632 0.115807 0.083962 -0.035551 1.170155 3.841216 2.539566 -5.217390 0.000000 0.000000 0.000000 -1.448848 4.748669 -31.432457 7.493472 -1.427096 16.583152 -10.256523 -32.510240 9.695864 0.000000 0.000000 0.000000 -3.319657 -1.111102 24.994271 3.790353 -0.785995 -11.338851 1.630600 -7.764470 5.896048 0.000000 0.000000 0.000000 1.580571 -0.539891 -10.889139 0.000000 0.000000 0.000000 10.037336 -27.318858 -16.342317 1.541361 -1.682181 -22.908989 -3.452849 -12.403671 -38.785976 0.000000 0.000000 0.000000 -4.779424 -7.547028 5.344909 0.071560 -0.472199 3.657903 -5.412169 7.951324 -37.217517 
0.060102 0.931381 0.001243 1.752354 2.795877 4.384672 0.000000 0.000000 0.000000 -6.687438 0.456363 -0.432969 0.245115 -0.142421 4.564501 4.427405 3.470038 -5.811568 0.000000 0.000000 0.000000 0.083278 5.001658 -30.559268 6.935254 -1.173137 10.547032 -13.647520 -38.957212 14.766188 0.000000 0.000000 0.000000 -1.249422 -1.857887 23.477357 5.282127 -0.878670 -12.567006 2.339050 -9.625819 5.184699 0.000000 0.000000 0.000000 1.492126 -0.601483 -9.311622 0.000000 0.000000 0.000000 14.457987 -28.567984 -18.284671 2.361884 -1.419272 -19.593988 -2.462152 -13.440876 -44.599013 0.000000 0.000000 0.000000 -7.318755 -11.244094 8.448133 -5.492361 -0.548260 4.060985 -6.521263 9.451514 -44.083172 
0.066669 0.926895 0.035070 1.718186 0.857710 2.804659 0.000000 0.000000 0.000000 -6.912190 -0.832281 -4.591119 -1.378421 -0.165002 20.456331 6.706447 6.411397 -8.655877 0.000000 0.000000 0.000000 1.554192 4.730565 -26.680491 6.177476 -0.938812 8.438849 -14.300899 -39.963582 14.754742 0.000000 0.000000 0.000000 1.582762 -3.022538 23.981662 6.035616 -0.867477 -14.935423 3.335389 -10.396329 4.922460 0.000000 0.000000 0.000000 0.852901 -0.404532 -7.677149 0.000000 0.000000 0.000000 17.768801 -27.841789 -18.621609 5.447579 -1.030826 -12.578662 -2.286493 -14.483464 -48.241151 0.000000 0.000000 0.000000 -10.941552 -11.753175 10.345516 -12.597177 -0.548786 3.108959 -8.573067 8.709039 -48.476456 
